<svg xmlns="http://www.w3.org/2000/svg" aria-hidden="true" style="position:absolute;width:0;height:0;overflow:hidden">
  <symbol id="cg-icon-word-quest" viewBox="0 0 24 24">
    <path fill="currentColor" d="M6 4h12l-1 14-5 2-5-2L6 4Zm3.3 3.2v2.1h5.3V7.2H9.3Zm0 4v2.2h5.3v-2.2H9.3Z"/>
  </symbol>
  <symbol id="cg-icon-word-connections" viewBox="0 0 24 24">
    <path fill="currentColor" d="M6.5 7a3.5 3.5 0 1 1 2.8 5.6H8v2.8h5.8v-1.2a3.5 3.5 0 1 1 2.2 0V17H8a2 2 0 0 1-2-2v-2.4A3.5 3.5 0 0 1 6.5 7Z"/>
  </symbol>
  <symbol id="cg-icon-morphology-builder" viewBox="0 0 24 24">
    <path fill="currentColor" d="M4 6h6v4H4V6Zm10 0h6v4h-6V6ZM4 14h10v4H4v-4Zm12 0h4v4h-4v-4Z"/>
  </symbol>
  <symbol id="cg-icon-concept-ladder" viewBox="0 0 24 24">
    <path fill="currentColor" d="M5 18h14v2H5v-2Zm2-4h10v2H7v-2Zm2-4h6v2H9v-2Zm2-4h2v2h-2V6Z"/>
  </symbol>
  <symbol id="cg-icon-error-detective" viewBox="0 0 24 24">
    <path fill="currentColor" d="m10 4 8 8-1.4 1.4-2-2V18H7v-2h5.6v-6.6l-4-4L10 4ZM4 18h2v2H4v-2Z"/>
  </symbol>
  <symbol id="cg-icon-rapid-category" viewBox="0 0 24 24">
    <path fill="currentColor" d="M12 2a10 10 0 1 0 10 10A10 10 0 0 0 12 2Zm1 5v5.2l3.2 1.9-1 1.7L11 13V7Z"/>
  </symbol>
  <symbol id="cg-icon-sentence-builder" viewBox="0 0 24 24">
    <path fill="currentColor" d="M4 6h16v3H4V6Zm0 5h10v3H4v-3Zm0 5h16v3H4v-3Z"/>
  </symbol>
  <symbol id="cg-icon-score" viewBox="0 0 24 24">
    <path fill="currentColor" d="M12 2 3 6v6c0 5 3.8 9.7 9 10 5.2-.3 9-5 9-10V6l-9-4Zm0 5.3 1.6 3.2 3.5.5-2.5 2.4.6 3.4L12 15.1 8.8 16.8l.6-3.4-2.5-2.4 3.5-.5L12 7.3Z"/>
  </symbol>
  <symbol id="cg-icon-timer" viewBox="0 0 24 24">
    <path fill="currentColor" d="M9 2h6v2H9V2Zm3 4a9 9 0 1 0 9 9 9 9 0 0 0-9-9Zm1 4v4.4l3 1.8-1 1.7-4-2.4V10Z"/>
  </symbol>
  <symbol id="cg-icon-streak" viewBox="0 0 24 24">
    <path fill="currentColor" d="M13.7 2c.2 1.7-.4 3.2-1.7 4.7-1 1.1-1.4 2-1.4 3.1 0 1.4.7 2.4 2.1 3.1-.2-1.5.2-2.8 1.3-4 .9-1 2.2-1.7 3.9-2 .5 1 .8 2 .8 3.2 0 5-2.9 8.8-7.5 8.8C7.6 19 5 16.4 5 12.9c0-3.4 2.1-6 5.5-7.8.8-.4 1.9-.8 3.2-1.1Z"/>
  </symbol>
  <symbol id="cg-icon-progress" viewBox="0 0 24 24">
    <path fill="currentColor" d="M5 5h14v3H5V5Zm0 5h10v3H5v-3Zm0 5h14v3H5v-3Z"/>
  </symbol>
  <symbol id="cg-icon-hint" viewBox="0 0 24 24">
    <path fill="currentColor" d="M9 18h6v2H9v-2Zm1 3h4v1h-4v-1Zm2-19a7 7 0 0 0-4.5 12.4c.9.8 1.4 1.6 1.7 2.6h5.6c.3-1 .8-1.8 1.7-2.6A7 7 0 0 0 12 2Z"/>
  </symbol>
  <symbol id="cg-icon-context" viewBox="0 0 24 24">
    <path fill="currentColor" d="M12 2 4 6v5c0 4.8 3.4 9.1 8 10 4.6-.9 8-5.2 8-10V6l-8-4Zm0 3.2 5 2.5V11c0 3.3-2.1 6.2-5 7-2.9-.8-5-3.7-5-7V7.7l5-2.5Z"/>
  </symbol>
  <symbol id="cg-icon-teacher" viewBox="0 0 24 24">
    <path fill="currentColor" d="M12 3 2 8l10 5 8-4v6h2V8L12 3Zm-5 9v3.5C7 18.6 9.2 20 12 20s5-1.4 5-4.5V12l-5 2.5L7 12Z"/>
  </symbol>
  <symbol id="cg-icon-projector" viewBox="0 0 24 24">
    <path fill="currentColor" d="M4 5h16a2 2 0 0 1 2 2v8a2 2 0 0 1-2 2h-6l1.5 2H18v2H6v-2h2.5L10 17H4a2 2 0 0 1-2-2V7a2 2 0 0 1 2-2Zm0 2v8h16V7H4Z"/>
  </symbol>
</svg>
